# xmcd
#
# Track frame offsets:
#	150
#	14475
#	27080
#	42354
#	53795
#	66561
#	84600
#	101531
#	120140
#	133393
#	144759
#	159161
#	172017
#	188008
#	200474
#	216123
#	226318
#	242309
#
# Disc length: 3406 seconds
#
# Revision: 0
# Processed by: cddbd v1.5.2PL0 Copyright (c) Steve Scherf et al.
# Submitted via: EasyCDDAExtractor 10.2.0.1
#
DISCID=ed0d4c12
DTITLE=Various Artist - Circuit Rider Records Vol. 46
DYEAR=2004
DGENRE=Gospel
TTITLE0=Otha Geeslin - Wouldn't It Be Wonderful
TTITLE1=Marvin Morrow - He Gave To me
TTITLE2=Melanie Walker - Until We Know
TTITLE3=The Calloways - When I Get Home
TTITLE4=Margaret Anne Smith - Weary Traveler
TTITLE5=Debbie Bennett - Pictures On The Floor
TTITLE6=Summerville - He Turned Thirty Two
TTITLE7=Hunt And Webb - Another Mountain Has Been Moved
TTITLE8=Ted Cook - Timbers In My Eyes
TTITLE9=Connie Strange - Guardian Angel Of Mine
TTITLE10=Tommy Smith - The Way Love Should Be
TTITLE11=Downings Plus - Angel In Heaven
TTITLE12=Sandra Sisk - Get Into The Boat
TTITLE13=Margie Cumbie - Lord, Would You Move This Mountain
TTITLE14=Tribute - Just Believe
TTITLE15=Hermon Truelove - Come Little Children, Come
TTITLE16=Paul Jones - The Vessell
TTITLE17=Connie Lea - El Shaddi
EXTD=
EXTT0=
EXTT1=
EXTT2=
EXTT3=
EXTT4=
EXTT5=
EXTT6=
EXTT7=
EXTT8=
EXTT9=
EXTT10=
EXTT11=
EXTT12=
EXTT13=
EXTT14=
EXTT15=
EXTT16=
EXTT17=
PLAYORDER=
